<svg xmlns="http://www.w3.org/2000/svg" viewBox="0 0 500 500"><g id="freepik--background-complete--inject-61"><path d="M443.92,334.2H263.17a5.87,5.87,0,0,1-5.86-5.86V65.06a5.87,5.87,0,0,1,5.86-5.86H443.92a5.87,5.87,0,0,1,5.86,5.86V328.34A5.87,5.87,0,0,1,443.92,334.2ZM263.17,59.45a5.62,5.62,0,0,0-5.61,5.61V328.34a5.62,5.62,0,0,0,5.61,5.61H443.92a5.61,5.61,0,0,0,5.61-5.61V65.06a5.61,5.61,0,0,0-5.61-5.61Z" style="fill:#e0e0e0"></path><path d="M235.49,334.2H54.75a5.87,5.87,0,0,1-5.87-5.86V65.06a5.87,5.87,0,0,1,5.87-5.86H235.49a5.86,5.86,0,0,1,5.86,5.86V328.34A5.86,5.86,0,0,1,235.49,334.2ZM54.75,59.45a5.62,5.62,0,0,0-5.62,5.61V328.34A5.62,5.62,0,0,0,54.75,334H235.49a5.61,5.61,0,0,0,5.61-5.61V65.06a5.61,5.61,0,0,0-5.61-5.61Z" style="fill:#e0e0e0"></path><rect y="395.27" width="500" height="0.25" style="fill:#e0e0e0"></rect><rect x="51.67" y="409.53" width="16.06" height="0.25" style="fill:#e0e0e0"></rect><rect x="170.35" y="406.82" width="53.53" height="0.25" style="fill:#e0e0e0"></rect><rect x="68.73" y="418.82" width="36.25" height="0.25" style="fill:#e0e0e0"></rect><rect x="378.35" y="406.69" width="43.19" height="0.25" style="fill:#e0e0e0"></rect><rect x="430.45" y="406.69" width="6.33" height="0.25" style="fill:#e0e0e0"></rect><rect x="316.21" y="412.92" width="53.89" height="0.25" style="fill:#e0e0e0"></rect><path d="M382.16,219.89a6.88,6.88,0,0,0-7.44-.44c-3-6.09-11.41-8.78-17.4-5.57a15,15,0,0,0-29.28.36,5.72,5.72,0,0,1-1.12,3c-1.22,1.25-3.25.83-5,.69a12.36,12.36,0,0,0-12.45,8.69l75.25-.28C385.39,223.76,384.26,221.48,382.16,219.89Z" style="fill:#f0f0f0"></path><path d="M388.68,265.67a48.8,48.8,0,0,1-.25-9.12,50.12,50.12,0,0,0,1.12,9l-.87.14Z" style="fill:#f5f5f5"></path><path d="M388.71,265.41q2.28-4.34,4.26-8.82c-1,3.1-2.2,6.17-3.45,9.19l-.81-.37Z" style="fill:#f5f5f5"></path><polygon points="388.9 265.21 396.32 261.64 389.33 265.98 388.9 265.21 388.9 265.21" style="fill:#f5f5f5"></polygon><path d="M400.15,282.24c-2.72-11.67-11.91-22.73-23.86-23.59-7.26-.53-14.54,2.86-19.38,8.3a31.86,31.86,0,0,0-7.55,20,37.54,37.54,0,0,0,34,38.58l14.85-7.72C400.55,306.08,402.86,293.9,400.15,282.24Z" style="fill:#e0e0e0"></path><path d="M381,291.54a49.67,49.67,0,0,1-.25-9.12,50.12,50.12,0,0,0,1.12,9l-.87.14Z" style="fill:#fff"></path><path d="M381.07,291.28q2.26-4.33,4.25-8.82-1.56,4.65-3.45,9.19l-.8-.37Z" style="fill:#fff"></path><polygon points="381.25 291.08 388.68 287.51 381.68 291.85 381.25 291.08 381.25 291.08" style="fill:#fff"></polygon><path d="M365.12,302.82a49.29,49.29,0,0,1-8.23-3.92,49.09,49.09,0,0,0,8.5,3.08l-.27.84Z" style="fill:#fff"></path><path d="M364.91,302.67q-2.82-4-5.93-7.79,3.43,3.5,6.63,7.25l-.7.54Z" style="fill:#fff"></path><polygon points="364.81 302.41 365.01 294.18 365.7 302.38 364.81 302.41 364.81 302.41" style="fill:#fff"></polygon><path d="M365.77,274a50,50,0,0,1-8.23-3.91,49.89,49.89,0,0,0,8.5,3.07l-.27.84Z" style="fill:#fff"></path><path d="M365.56,273.89q-2.82-4-5.93-7.79,3.44,3.51,6.63,7.25l-.7.54Z" style="fill:#fff"></path><polygon points="365.46 273.64 365.65 265.4 366.35 273.61 365.46 273.64 365.46 273.64" style="fill:#fff"></polygon><path d="M461.63,344a40,40,0,0,0,7-2.74,41.57,41.57,0,0,1-6.72,3.58l-.3-.84Z" style="fill:#f0f0f0"></path><path d="M461.42,344.17Q464,341,466.78,338c-1.63,2.18-3.17,4.42-4.64,6.71l-.72-.52Z" style="fill:#f0f0f0"></path><polygon points="461.34 344.43 461.75 337.58 462.23 344.43 461.34 344.43 461.34 344.43" style="fill:#f0f0f0"></polygon><path d="M445.19,343.13c9.6-2.75,21.38-.52,26.85,7.83a20.18,20.18,0,0,1,1.79,17.48,26.53,26.53,0,0,1-11.54,13.61,31.29,31.29,0,0,1-41.88-9.18L420,358.93C427.65,352.48,435.59,345.87,445.19,343.13Z" style="fill:#e0e0e0"></path><path d="M450.86,364.67a40.57,40.57,0,0,0,7-2.75,41.11,41.11,0,0,1-6.71,3.58l-.31-.83Z" style="fill:#f5f5f5"></path><path d="M450.66,364.83q2.56-3.19,5.36-6.2-2.44,3.28-4.64,6.71l-.72-.51Z" style="fill:#f5f5f5"></path><polygon points="450.57 365.09 450.98 358.23 451.46 365.08 450.57 365.09 450.57 365.09" style="fill:#f5f5f5"></polygon><path d="M447.57,380.45a41.24,41.24,0,0,0,5.63,5,41.09,41.09,0,0,1-6.24-4.36l.61-.64Z" style="fill:#f5f5f5"></path><path d="M447.33,380.33q4,.84,8,2-4-.69-8.09-1.09l.13-.88Z" style="fill:#f5f5f5"></path><polygon points="447.06 380.38 453.36 377.63 447.47 381.16 447.06 380.38 447.06 380.38" style="fill:#f5f5f5"></polygon><path d="M470.27,365.46a40.65,40.65,0,0,0,5.63,5,41.73,41.73,0,0,1-6.23-4.36l.6-.65Z" style="fill:#f5f5f5"></path><path d="M470,365.35c2.67.56,5.33,1.22,7.95,2q-4-.69-8.09-1.09l.14-.87Z" style="fill:#f5f5f5"></path><polygon points="469.77 365.39 476.06 362.64 470.17 366.18 469.77 365.39 469.77 365.39" style="fill:#f5f5f5"></polygon><path d="M414.37,413.13a49.55,49.55,0,0,0,6.62,6.16,49,49,0,0,1-7.24-5.53l.62-.63Z" style="fill:#f5f5f5"></path><path d="M414.14,413q4.78,1.13,9.47,2.58c-3.19-.69-6.41-1.26-9.63-1.71l.16-.87Z" style="fill:#f5f5f5"></path><polygon points="413.87 413.04 421.49 409.91 414.25 413.84 413.87 413.04 413.87 413.04" style="fill:#f5f5f5"></polygon><path d="M346.71,411.47a48.84,48.84,0,0,0-8.63-2.71,48.8,48.8,0,0,1,8.92,1.87l-.29.84Z" style="fill:#f5f5f5"></path><path d="M347,411.48c-3.2.7-6.43,1.28-9.66,1.75q4.77-1.14,9.43-2.61l.23.86Z" style="fill:#f5f5f5"></path><polygon points="347.2 411.33 341.67 417.44 346.51 410.77 347.2 411.33 347.2 411.33" style="fill:#f5f5f5"></polygon><path d="M370.63,321.67c6.25-6.29,12.7-12.61,20.62-16.59s17.67-5.32,25.62-1.39c6,2.95,10.34,8.6,12.83,14.79s3.26,12.95,3.5,19.62c1.41,38.47-14.26,86.61-42.95,112.28H372.82c-9.52-11.6-19.13-23.32-25.91-36.71s-10.59-28.78-7.79-43.53C342.77,350.91,356.83,335.56,370.63,321.67Z" style="fill:#ebebeb"></path><path d="M358.27,357.34a49.35,49.35,0,0,0,6.78-6,49.58,49.58,0,0,1-6.21,6.67l-.57-.68Z" style="fill:#f5f5f5"></path><path d="M358.13,357.56q1.59-4.67,3.49-9.18-1.49,4.67-2.64,9.43l-.85-.25Z" style="fill:#f5f5f5"></path><polygon points="358.14 357.83 355.76 349.95 358.97 357.53 358.14 357.83 358.14 357.83" style="fill:#f5f5f5"></polygon><path d="M391.74,318.29a49.61,49.61,0,0,0,.39-9,49.42,49.42,0,0,1,.49,9.1l-.88-.06Z" style="fill:#f5f5f5"></path><path d="M391.79,318.54q-2.24-4.38-4.18-8.88,2.34,4.3,4.95,8.44l-.77.44Z" style="fill:#f5f5f5"></path><polygon points="392 318.72 384.67 314.96 392.36 317.92 392 318.72 392 318.72" style="fill:#f5f5f5"></polygon><path d="M419.08,329.88a49.8,49.8,0,0,0,8.71-2.42,50,50,0,0,1-8.5,3.28l-.21-.86Z" style="fill:#f5f5f5"></path><path d="M418.86,330c2.3-2.33,4.69-4.58,7.14-6.74q-3.37,3.56-6.49,7.33l-.65-.59Z" style="fill:#f5f5f5"></path><polygon points="418.74 330.27 420.05 322.13 419.63 330.36 418.74 330.27 418.74 330.27" style="fill:#f5f5f5"></polygon><path d="M405.32,380.33a48.86,48.86,0,0,0,8.48-3.15,49.31,49.31,0,0,1-8.2,4l-.28-.84Z" style="fill:#f5f5f5"></path><path d="M405.11,380.48q3.15-3.76,6.56-7.3Q408.6,377,405.82,381l-.71-.54Z" style="fill:#f5f5f5"></path><polygon points="405.02 380.74 405.64 372.53 405.91 380.76 405.02 380.74 405.02 380.74" style="fill:#f5f5f5"></polygon><path d="M363.09,387.5a49.59,49.59,0,0,0,2.68-8.63,49.76,49.76,0,0,1-1.84,8.92l-.84-.29Z" style="fill:#f5f5f5"></path><path d="M363.08,387.76c-.71-3.2-1.3-6.42-1.79-9.65.78,3.17,1.66,6.32,2.65,9.42l-.86.23Z" style="fill:#f5f5f5"></path><polygon points="363.23 387.99 357.1 382.49 363.79 387.3 363.23 387.99 363.23 387.99" style="fill:#f5f5f5"></polygon><path d="M381.2,416.42a50,50,0,0,0,2.68-8.64,49.89,49.89,0,0,1-1.85,8.93l-.83-.29Z" style="fill:#f5f5f5"></path><path d="M381.19,416.68c-.71-3.2-1.31-6.43-1.79-9.66q1.16,4.77,2.64,9.43l-.85.23Z" style="fill:#f5f5f5"></path><polygon points="381.34 416.91 375.21 411.4 381.89 416.22 381.34 416.91 381.34 416.91" style="fill:#f5f5f5"></polygon><path d="M392.18,348.93a49.52,49.52,0,0,0,7.22-5.45,49.7,49.7,0,0,1-6.71,6.17l-.51-.72Z" style="fill:#f5f5f5"></path><path d="M392,349.13q1.94-4.51,4.19-8.88-1.84,4.54-3.36,9.19l-.83-.31Z" style="fill:#f5f5f5"></path><polygon points="392 349.4 390.25 341.36 392.86 349.17 392 349.4 392 349.4" style="fill:#f5f5f5"></polygon><path d="M88.39,327.41a49.07,49.07,0,0,1-5.08-7.57,48.84,48.84,0,0,0,5.75,7l-.67.59Z" style="fill:#f5f5f5"></path><path d="M88.29,327.17q-.39-4.87-1.13-9.72c.78,3.17,1.45,6.38,2,9.61l-.88.11Z" style="fill:#f5f5f5"></path><polygon points="88.34 326.9 92.7 319.92 89.11 327.33 88.34 326.9 88.34 326.9" style="fill:#f5f5f5"></polygon><path d="M54,353.47a50.6,50.6,0,0,1-9-1.41,49.72,49.72,0,0,0,9,.52l0,.89Z" style="fill:#f5f5f5"></path><path d="M53.75,353.38q-3.84-3-7.9-5.77,4.29,2.37,8.42,5.05l-.52.72Z" style="fill:#f5f5f5"></path><polygon points="53.59 353.16 51.42 345.22 54.43 352.88 53.59 353.16 53.59 353.16" style="fill:#f5f5f5"></polygon><path d="M74.26,318.54c-1.74-3.67-4.74-7-8.65-8s-8.68.56-10.31,4.28a9.26,9.26,0,0,0,.24,7.24,21.73,21.73,0,0,0,4.24,6.06c3.14,3.43,7,6.71,11.65,7l5.85-4.8C76.64,326.28,76,322.21,74.26,318.54Z" style="fill:#e0e0e0"></path><path d="M152.27,324.15c1.39-3.38.9-7.28-.48-10.66a21.68,21.68,0,0,0-33.42-8.84c-8.1,6.35-10.65,17.58-10.42,27.86l10.71,10.35c9.2-1.29,20.32-6.19,27.69-11.86C148.77,329.14,151.11,327,152.27,324.15Z" style="fill:#e0e0e0"></path><path d="M131.07,384.62c-.54-14.36-2.82-29.22-10.84-41.14s-23-20.07-36.93-16.35c-8.34,2.23-15.11,8.25-21,14.57-6.08,6.53-11.75,13.91-13.71,22.61-3.48,15.39,5.59,29.34,12.62,43.47C70.93,427.32,90.55,449,90.55,449h26.9C123.53,428.17,131.89,406.33,131.07,384.62Z" style="fill:#ebebeb"></path><path d="M124.22,416.05a49.07,49.07,0,0,1,6.13-6.74,48.66,48.66,0,0,0-5.4,7.24l-.73-.5Z" style="fill:#f5f5f5"></path><path d="M124.42,415.89c3.09-1,6.16-2.17,9.18-3.41q-4.35,2.26-8.86,4.24l-.32-.83Z" style="fill:#f5f5f5"></path><polygon points="124.7 415.87 132.52 418.44 124.47 416.73 124.7 415.87 124.7 415.87" style="fill:#f5f5f5"></polygon><path d="M84.08,414.33a49.25,49.25,0,0,1-8.8-2.36,50.2,50.2,0,0,0,8.92,1.49l-.12.87Z" style="fill:#f5f5f5"></path><path d="M83.85,414.23q-3.5-3.42-7.23-6.6,4,2.82,7.82,5.93l-.59.67Z" style="fill:#f5f5f5"></path><polygon points="83.71 413.99 82.41 405.86 84.58 413.8 83.71 413.99 83.71 413.99" style="fill:#f5f5f5"></polygon><path d="M107.61,386.66a49,49,0,0,1-3-8.6,49.2,49.2,0,0,0,3.8,8.2l-.79.4Z" style="fill:#f5f5f5"></path><path d="M107.56,386.41c.57-3.21,1-6.45,1.38-9.7q-.07,4.91-.5,9.81l-.88-.11Z" style="fill:#f5f5f5"></path><polygon points="107.68 386.16 113.67 380.5 108.32 386.77 107.68 386.16 107.68 386.16" style="fill:#f5f5f5"></polygon><path d="M67,372.76A50,50,0,0,1,59,368.51a49,49,0,0,0,8.37,3.42l-.31.83Z" style="fill:#f5f5f5"></path><path d="M66.81,372.6q-2.66-4.11-5.6-8,3.29,3.65,6.32,7.52l-.72.51Z" style="fill:#f5f5f5"></path><polygon points="66.72 372.34 67.25 364.12 67.61 372.35 66.72 372.34 66.72 372.34" style="fill:#f5f5f5"></polygon><path d="M90.21,353.12a49,49,0,0,1-5.08-7.56,49.39,49.39,0,0,0,5.75,7l-.67.58Z" style="fill:#f5f5f5"></path><path d="M90.11,352.89c-.26-3.25-.64-6.5-1.13-9.73q1.17,4.77,2,9.61l-.88.12Z" style="fill:#f5f5f5"></path><polygon points="90.16 352.62 94.52 345.63 90.94 353.04 90.16 352.62 90.16 352.62" style="fill:#f5f5f5"></polygon><path d="M126.21,359.74a50,50,0,0,1,3.39-8.46,50.11,50.11,0,0,0-2.54,8.68l-.85-.22Z" style="fill:#f5f5f5"></path><path d="M126.34,359.52q3.81-3.06,7.41-6.4-3.28,3.64-6.82,7.07l-.59-.67Z" style="fill:#f5f5f5"></path><polygon points="126.59 359.41 134.82 359.09 126.68 360.3 126.59 359.41 126.59 359.41" style="fill:#f5f5f5"></polygon><path d="M120.83,316a39.59,39.59,0,0,1-4.11-6.11,39.39,39.39,0,0,0,4.65,5.64l-.54.47Z" style="fill:#f5f5f5"></path><path d="M120.74,315.81q-.31-3.93-.91-7.85.94,3.84,1.62,7.76l-.71.09Z" style="fill:#f5f5f5"></path><polygon points="120.78 315.59 124.31 309.95 121.41 315.94 120.78 315.59 120.78 315.59" style="fill:#f5f5f5"></polygon><path d="M135.65,310.83a40.63,40.63,0,0,1,5.19-5.22,40.35,40.35,0,0,0-4.62,5.66l-.57-.44Z" style="fill:#f5f5f5"></path><path d="M135.82,310.71c2.53-.72,5-1.52,7.53-2.42q-3.6,1.68-7.3,3.1l-.23-.68Z" style="fill:#f5f5f5"></path><polygon points="136.04 310.71 142.26 313.07 135.83 311.39 136.04 310.71 136.04 310.71" style="fill:#f5f5f5"></polygon><path d="M124.42,329.77a40.37,40.37,0,0,1,5.66-4.72,40,40,0,0,0-5.13,5.2l-.53-.48Z" style="fill:#f5f5f5"></path><path d="M124.6,329.66c2.59-.48,5.17-1.05,7.72-1.71q-3.72,1.33-7.55,2.41l-.17-.7Z" style="fill:#f5f5f5"></path><polygon points="124.82 329.68 130.8 332.61 124.55 330.34 124.82 329.68 124.82 329.68" style="fill:#f5f5f5"></polygon><path d="M70.59,325.36a49.27,49.27,0,0,1-8.11-4.17,48.57,48.57,0,0,0,8.41,3.33l-.3.84Z" style="fill:#f5f5f5"></path><path d="M70.38,325.2q-2.7-4.08-5.68-8,3.33,3.6,6.4,7.45l-.72.52Z" style="fill:#f5f5f5"></path><polygon points="70.3 324.94 70.74 316.71 71.18 324.94 70.3 324.94 70.3 324.94" style="fill:#f5f5f5"></polygon><path d="M164.3,114.62a9.18,9.18,0,0,0-9.93-.58c-4-8.13-15.23-11.72-23.22-7.44a20,20,0,0,0-39.07.47c-.3,1.4-.49,2.94-1.5,4-1.62,1.66-4.34,1.1-6.65.92a16.49,16.49,0,0,0-16.62,11.59l100.42-.36C168.61,119.78,167.1,116.74,164.3,114.62Z" style="fill:#ebebeb"></path><path d="M430.85,97a7,7,0,0,0-8.51-.58c-3.45-8.13-13.06-11.71-19.92-7.43-1.79-8.76-9.19-15.49-16.92-15.39s-15,7.05-16.59,15.86c-.25,1.4-.42,2.93-1.28,3.95-1.4,1.67-3.73,1.11-5.71.93-6.26-.57-12.55,4.55-14.25,11.59l86.13-.37A8.68,8.68,0,0,0,430.85,97Z" style="fill:#ebebeb"></path><path d="M226.3,55.14a6.9,6.9,0,0,0-7.44-.43c-3-6.09-11.42-8.78-17.41-5.57a15,15,0,0,0-29.27.35,5.78,5.78,0,0,1-1.12,3c-1.22,1.25-3.26.83-5,.7a12.34,12.34,0,0,0-12.45,8.68l75.25-.27C229.53,59,228.4,56.73,226.3,55.14Z" style="fill:#f0f0f0"></path><path d="M459.84,167.34a4.38,4.38,0,0,0-4.74-.28A8.44,8.44,0,0,0,444,163.51a9.55,9.55,0,0,0-18.64.23,3.69,3.69,0,0,1-.72,1.88c-.77.8-2.07.53-3.18.44a7.88,7.88,0,0,0-7.93,5.54l47.94-.18A3.83,3.83,0,0,0,459.84,167.34Z" style="fill:#f0f0f0"></path><path d="M81.21,197.43a4.36,4.36,0,0,0-4.73-.27,8.42,8.42,0,0,0-11.09-3.55,9.56,9.56,0,0,0-18.65.22,3.63,3.63,0,0,1-.71,1.89c-.78.79-2.07.53-3.18.44a7.87,7.87,0,0,0-7.93,5.53l47.94-.17A3.85,3.85,0,0,0,81.21,197.43Z" style="fill:#f0f0f0"></path></g><g id="freepik--Shadow--inject-61"><path d="M458.88,452.39c0,3.39-93.52,6.14-208.88,6.14s-208.88-2.75-208.88-6.14,93.52-6.13,208.88-6.13S458.88,449,458.88,452.39Z" style="fill:#f5f5f5"></path></g><g id="freepik--Cactus--inject-61"><path d="M92.53,232.11a49.68,49.68,0,0,1-8.18,4A49.35,49.35,0,0,0,92,231.37l.49.74Z" style="fill:#fff"></path><path d="M92.28,232.18q-4.89-.26-9.79-.18,4.88-.52,9.8-.7v.88Z" style="fill:#fff"></path><polygon points="92.02 232.1 85.68 226.84 92.55 231.38 92.02 232.1 92.02 232.1" style="fill:#fff"></polygon><path d="M177.84,178a49.34,49.34,0,0,1,4.7-7.81,49.18,49.18,0,0,0-3.89,8.16l-.81-.35Z" style="fill:#fff"></path><path d="M178,177.79q4.25-2.41,8.33-5.13-3.83,3.08-7.86,5.88l-.47-.75Z" style="fill:#fff"></path><polygon points="178.27 177.72 186.45 178.72 178.22 178.61 178.27 177.72 178.27 177.72" style="fill:#fff"></polygon><path d="M126.2,219a50,50,0,0,1-8.55-3.15,49.33,49.33,0,0,0,8.74,2.29l-.19.86Z" style="fill:#fff"></path><path d="M126,218.82q-3.16-3.72-6.6-7.22,3.73,3.18,7.25,6.62l-.65.6Z" style="fill:#fff"></path><polygon points="125.86 218.57 125.3 210.36 126.74 218.47 125.86 218.57 125.86 218.57" style="fill:#fff"></polygon><path d="M232,172.19a48.92,48.92,0,0,1-5.48-7.29,48.87,48.87,0,0,0,6.11,6.66l-.63.63Z" style="fill:#fff"></path><path d="M231.86,172c-.43-3.23-1-6.44-1.64-9.65q1.42,4.69,2.51,9.5l-.87.15Z" style="fill:#fff"></path><polygon points="231.9 171.68 235.88 164.47 232.69 172.07 231.9 171.68 231.9 171.68" style="fill:#fff"></polygon><path d="M361.39,152a49.65,49.65,0,0,1,6.6-6.29,48,48,0,0,0-5.9,6.85l-.7-.56Z" style="fill:#fff"></path><path d="M361.61,151.81q4.74-1.22,9.39-2.76c-3,1.3-6,2.51-9.13,3.6l-.26-.84Z" style="fill:#fff"></path><polygon points="361.88 151.81 369.51 154.92 361.6 152.65 361.88 151.81 361.88 151.81" style="fill:#fff"></polygon><path d="M353.13,178.75a49.88,49.88,0,0,1,9.05,1.12,48.82,48.82,0,0,0-9-.23v-.89Z" style="fill:#fff"></path><path d="M353.38,178.83q3.93,2.89,8.08,5.52-4.36-2.23-8.57-4.79l.49-.73Z" style="fill:#fff"></path><polygon points="353.55 179.04 355.97 186.91 352.72 179.35 353.55 179.04 353.55 179.04" style="fill:#fff"></polygon><path d="M330.43,145.88a49.73,49.73,0,0,1-6.92-5.94,49,49,0,0,0,7.4,5.19l-.48.75Z" style="fill:#fff"></path><path d="M330.26,145.68q-1.67-4.59-3.67-9.08,2.39,4.29,4.49,8.74l-.82.34Z" style="fill:#fff"></path><polygon points="330.24 145.4 332.58 137.51 331.1 145.61 330.24 145.4 330.24 145.4" style="fill:#fff"></polygon><path d="M250.77,262.81a49.72,49.72,0,0,1-9,1.76,49.18,49.18,0,0,0,8.67-2.6l.28.84Z" style="fill:#fff"></path><path d="M250.51,262.82q-4.65-1.53-9.4-2.74c3.23.52,6.44,1.14,9.64,1.88l-.24.86Z" style="fill:#fff"></path><polygon points="250.28 262.67 245.53 255.94 250.98 262.11 250.28 262.67 250.28 262.67" style="fill:#fff"></polygon><path d="M312,289.56a49.53,49.53,0,0,1,8.83,2.26,48.59,48.59,0,0,0-8.94-1.38l.11-.88Z" style="fill:#fff"></path><path d="M312.24,289.66q3.52,3.38,7.3,6.52-4-2.79-7.89-5.85l.59-.67Z" style="fill:#fff"></path><polygon points="312.38 289.9 313.77 298.02 311.51 290.1 312.38 289.9 312.38 289.9" style="fill:#fff"></polygon><path d="M330.2,199.33c-2.82-8.41-5.81-16.94-11.15-24s-13.49-12.59-22.35-12.59c-6.68,0-13.08,3.14-18.06,7.59s-8.65,10.16-11.82,16c-18.29,33.88-22.64,80.32-8.28,116l12.71,11.37c13.68-6.19,27.48-12.45,39.49-21.45S333,271.2,337,256.74C342.24,237.88,336.42,217.89,330.2,199.33Z" style="fill:#407BFF"></path><path d="M255.93,295.17s14.68,2.46,22.57,15.3l-4.11,2.2-16.18-11.09Z" style="opacity:0.30000000000000004"></path><path d="M108.14,222.37c-3.56-2-7.91-2.86-11.72-1.45s-6.71,5.54-5.85,9.51A9.26,9.26,0,0,0,95,236.15a21.7,21.7,0,0,0,7,2.44c4.55.94,9.61,1.33,13.54-1.15l1.93-7.31C114.6,227.25,111.69,224.33,108.14,222.37Z" style="fill:#407BFF"></path><path d="M114.6,227.31c-.25.25-4.28,12-4.28,12a8.62,8.62,0,0,0,3.85-1.14l2.84-8.49Z" style="opacity:0.30000000000000004"></path><path d="M178.22,174.1c-1.05-4.39-4.37-8-8.2-10.35a26.83,26.83,0,0,0-40,15.34c-3.53,12.25,2.05,25.37,9.73,35.53L158,217.24c8.31-8,15.91-20.94,19.21-32C178.33,181.65,179.11,177.78,178.22,174.1Z" style="fill:#407BFF"></path><path d="M139.21,213.83l-2.9-4.28s20.75,0,25.47,3.72l-2.13,2.36Z" style="opacity:0.30000000000000004"></path><path d="M193,242.8c-8.84-11.33-19.38-22-32.87-27s-30.43-2.78-39.51,8.35c-5.46,6.7-7.42,15.54-8.5,24.11-1.11,8.85-1.39,18.16,2.12,26.36,6.19,14.51,22.36,21.86,37.62,25.88a183.59,183.59,0,0,0,55.71,5.84l16.67-6.64A202.93,202.93,0,0,0,193,242.8Z" style="fill:#407BFF"></path><polygon points="194.38 306.55 220.44 289.95 224.19 299.69 206.25 306.39 194.38 306.55" style="opacity:0.30000000000000004"></polygon><path d="M293,84.55c-7-10.25-19-17.48-31.47-16.93-9.61.59-16.72,2.39-24.73,7.72s-14.31,13.58-16.24,23c-2.24,10.88,1.34,22.11,6,32.19a149.67,149.67,0,0,0,21.92,34.29c3.74,4.39,7.82,8.64,12.86,11.45s11.21,4,16.67,2.16c8.93-3.08,13.23-13,16.19-22,3.9-11.81,7.28-23.94,7.81-36.36S300,94.81,293,84.55Z" style="fill:#407BFF"></path><path d="M271,179.35l20.57-15.89,2.6-7s-22.16,10.75-28.32,21.8A24.67,24.67,0,0,0,271,179.35Z" style="opacity:0.30000000000000004"></path><path d="M364.27,152.65c-2.61-9.49-10.23-12.07-20.46-11.62-6.55,1.12-13.08,3-18.67,6.57s-10.19,9.06-11.68,15.53S314,177,319.33,181c7.06,5.34,17,3.46,25.54,1.11,4.81-1.32,9.8-2.84,13.35-6.35A24.4,24.4,0,0,0,364.27,152.65Z" style="fill:#407BFF"></path><path d="M250.93,179.05c-9-7.94-22.87-11.62-33.11-5.41-6.23,3.78-10.2,10.76-11,18a31.73,31.73,0,0,0,5.45,20.7,37.54,37.54,0,0,0,50.08,11.73l7.63-14.9C265.07,198.25,259.9,187,250.93,179.05Z" style="fill:#407BFF"></path><path d="M297.92,361.57c-3-19.24-9.89-39-24.88-51.4-15.24-12.66-37.47-15.64-56.09-8.88s-33.39,22.56-40.4,41.09-6.56,39.49-.33,58.3,18,35.52,32.52,49h72.55C296.5,425.8,302.24,389.57,297.92,361.57Z" style="fill:#407BFF"></path><path d="M259.69,189.31S244,213.37,245.23,229.1l7.19-.82,10.4-33.83Z" style="opacity:0.30000000000000004"></path><path d="M314.51,171.37l9.5,12.09a19,19,0,0,0,7.09,1l-17.24-22.83-.77,3A7.76,7.76,0,0,0,314.51,171.37Z" style="opacity:0.30000000000000004"></path><path d="M324.68,237.14a49.78,49.78,0,0,1-2.62-8.73,48.88,48.88,0,0,0,3.43,8.37l-.81.36Z" style="fill:#fff"></path><path d="M324.64,236.88c.72-3.18,1.32-6.38,1.81-9.62-.19,3.27-.51,6.53-.93,9.78l-.88-.16Z" style="fill:#fff"></path><polygon points="324.77 236.64 331.01 231.26 325.39 237.28 324.77 236.64 324.77 236.64" style="fill:#fff"></polygon><path d="M312,186.62a49.52,49.52,0,0,1,4.46-8,48.75,48.75,0,0,0-3.64,8.28l-.82-.33Z" style="fill:#fff"></path><path d="M312.11,186.41q4.17-2.53,8.18-5.37-3.74,3.18-7.69,6.11l-.49-.74Z" style="fill:#fff"></path><polygon points="312.37 186.34 320.58 187.09 312.34 187.22 312.37 186.34 312.37 186.34" style="fill:#fff"></polygon><path d="M282.55,185.92a49.55,49.55,0,0,1-6.17-6.71,49.4,49.4,0,0,0,6.74,6l-.57.68Z" style="fill:#fff"></path><path d="M282.41,185.7q-1.12-4.75-2.58-9.44,1.88,4.53,3.43,9.2l-.85.24Z" style="fill:#fff"></path><polygon points="282.42 185.43 285.68 177.86 283.25 185.73 282.42 185.43 282.42 185.43" style="fill:#fff"></polygon><path d="M272.5,237.2a49.84,49.84,0,0,1-5.59-7.21,49,49,0,0,0,6.21,6.58l-.62.63Z" style="fill:#fff"></path><path d="M272.37,237c-.48-3.22-1.07-6.44-1.77-9.63q1.48,4.68,2.64,9.46l-.87.17Z" style="fill:#fff"></path><polygon points="272.41 236.7 276.29 229.43 273.21 237.07 272.41 236.7 272.41 236.7" style="fill:#fff"></polygon><path d="M306.93,261.58a50.39,50.39,0,0,1,2.3-8.82,50.17,50.17,0,0,0-1.42,8.93l-.88-.11Z" style="fill:#fff"></path><path d="M307,261.35q3.39-3.53,6.54-7.28c-1.86,2.68-3.82,5.31-5.87,7.86l-.67-.58Z" style="fill:#fff"></path><polygon points="307.28 261.21 315.4 259.85 307.47 262.07 307.28 261.21 307.28 261.21" style="fill:#fff"></polygon><path d="M277.9,279.5a50.27,50.27,0,0,1,2.3-8.83,49.28,49.28,0,0,0-1.42,8.93l-.88-.1Z" style="fill:#fff"></path><path d="M278,279.26q3.39-3.52,6.54-7.28c-1.86,2.68-3.82,5.31-5.88,7.86l-.66-.58Z" style="fill:#fff"></path><polygon points="278.24 279.12 286.37 277.76 278.44 279.98 278.24 279.12 278.24 279.12" style="fill:#fff"></polygon><path d="M298,214.65a48.77,48.77,0,0,1-3.28-8.5,49.25,49.25,0,0,0,4.06,8.08l-.78.42Z" style="fill:#fff"></path><path d="M298,214.4c.46-3.23.82-6.48,1-9.74.06,3.27,0,6.55-.17,9.82l-.88-.08Z" style="fill:#fff"></path><polygon points="298.09 214.15 303.89 208.29 298.75 214.73 298.09 214.15 298.09 214.15" style="fill:#fff"></polygon><path d="M200.09,411a50.06,50.06,0,0,1-9,1.76,48.82,48.82,0,0,0,8.66-2.6l.29.84Z" style="fill:#fff"></path><path d="M199.82,411c-3.09-1-6.23-1.93-9.39-2.74,3.22.52,6.44,1.14,9.63,1.88l-.24.86Z" style="fill:#fff"></path><polygon points="199.6 410.86 194.85 404.13 200.29 410.31 199.6 410.86 199.6 410.86" style="fill:#fff"></polygon><path d="M287.16,381.57a49.49,49.49,0,0,1-2.61-8.73,48.85,48.85,0,0,0,3.42,8.37l-.81.36Z" style="fill:#fff"></path><path d="M287.13,381.31c.71-3.17,1.32-6.38,1.81-9.61q-.3,4.89-.94,9.77l-.87-.16Z" style="fill:#fff"></path><polygon points="287.26 381.07 293.5 375.69 287.88 381.71 287.26 381.07 287.26 381.07" style="fill:#fff"></polygon><path d="M273.21,426.56a49.53,49.53,0,0,1-2.62-8.73A48.88,48.88,0,0,0,274,426.2l-.81.36Z" style="fill:#fff"></path><path d="M273.18,426.31q1.06-4.77,1.81-9.62-.3,4.89-.94,9.77l-.87-.15Z" style="fill:#fff"></path><polygon points="273.31 426.06 279.54 420.68 273.92 426.7 273.31 426.06 273.31 426.06" style="fill:#fff"></polygon><path d="M255,335.9a49.52,49.52,0,0,1,4.46-7.95,48.75,48.75,0,0,0-3.64,8.28l-.82-.33Z" style="fill:#fff"></path><path d="M255.11,335.69q4.17-2.54,8.18-5.37-3.74,3.18-7.69,6.11l-.49-.74Z" style="fill:#fff"></path><polygon points="255.37 335.62 263.57 336.37 255.34 336.5 255.37 335.62 255.37 335.62" style="fill:#fff"></polygon><path d="M287.52,346.65a50,50,0,0,1,5.16-7.51,49.62,49.62,0,0,0-4.37,7.91l-.79-.4Z" style="fill:#fff"></path><path d="M287.7,346.46q4.4-2.16,8.63-4.62-4,2.84-8.2,5.4l-.43-.78Z" style="fill:#fff"></path><polygon points="287.97 346.41 296.08 347.89 287.86 347.29 287.97 346.41 287.97 346.41" style="fill:#fff"></polygon><path d="M189.28,330.21a49.67,49.67,0,0,1-7-5.86,49.51,49.51,0,0,0,7.46,5.11l-.47.75Z" style="fill:#fff"></path><path d="M189.11,330q-1.73-4.58-3.78-9,2.44,4.26,4.59,8.68l-.81.35Z" style="fill:#fff"></path><polygon points="189.08 329.74 191.34 321.82 189.95 329.93 189.08 329.74 189.08 329.74" style="fill:#fff"></polygon><path d="M216.77,331.91a49.35,49.35,0,0,1-2.83-8.67,48.9,48.9,0,0,0,3.63,8.28l-.8.39Z" style="fill:#fff"></path><path d="M216.73,331.65q1-4.8,1.57-9.66c-.12,3.26-.35,6.53-.69,9.79l-.88-.13Z" style="fill:#fff"></path><polygon points="216.85 331.4 222.95 325.87 217.49 332.03 216.85 331.4 216.85 331.4" style="fill:#fff"></polygon><path d="M237.13,301.07a49.52,49.52,0,0,1-2.83-8.66,49.26,49.26,0,0,0,3.63,8.28l-.8.38Z" style="fill:#fff"></path><path d="M237.09,300.82q1-4.8,1.57-9.67-.18,4.91-.69,9.8l-.88-.13Z" style="fill:#fff"></path><polygon points="237.22 300.57 243.31 295.03 237.85 301.19 237.22 300.57 237.22 300.57" style="fill:#fff"></polygon><path d="M205.48,266.67a49.85,49.85,0,0,1-2.84-8.66,49.3,49.3,0,0,0,3.64,8.28l-.8.38Z" style="fill:#fff"></path><path d="M205.44,266.42c.63-3.2,1.16-6.42,1.57-9.67q-.18,4.9-.69,9.8l-.88-.13Z" style="fill:#fff"></path><polygon points="205.56 266.17 211.66 260.64 206.19 266.79 205.56 266.17 205.56 266.17" style="fill:#fff"></polygon><path d="M172.18,294.29a50,50,0,0,1-8.53,3.23,48.82,48.82,0,0,0,8.1-4l.43.78Z" style="fill:#fff"></path><path d="M171.92,294.34c-3.22-.49-6.47-.86-9.73-1.12,3.27,0,6.55,0,9.82.24l-.09.88Z" style="fill:#fff"></path><polygon points="171.67 294.23 165.86 288.39 172.26 293.57 171.67 294.23 171.67 294.23" style="fill:#fff"></polygon><path d="M175.05,258.08a49.25,49.25,0,0,1-7.48-5.21,50.1,50.1,0,0,0,7.89,4.43l-.41.78Z" style="fill:#fff"></path><path d="M174.86,257.9q-2.12-4.39-4.56-8.66,2.82,4,5.34,8.24l-.78.42Z" style="fill:#fff"></path><polygon points="174.81 257.63 176.36 249.54 175.69 257.75 174.81 257.63 174.81 257.63" style="fill:#fff"></polygon><path d="M134.07,270.68a49.24,49.24,0,0,1-9,1.27,49,49,0,0,0,8.79-2.13l.23.86Z" style="fill:#fff"></path><path d="M133.81,270.67c-3-1.18-6.12-2.26-9.24-3.23q4.8,1,9.53,2.39l-.29.84Z" style="fill:#fff"></path><polygon points="133.59 270.5 129.21 263.53 134.32 269.99 133.59 270.5 133.59 270.5" style="fill:#fff"></polygon><path d="M141.39,241.17a49.18,49.18,0,0,1-8.55-3.15,49.21,49.21,0,0,0,8.75,2.29l-.2.86Z" style="fill:#fff"></path><path d="M141.16,241q-3.16-3.72-6.6-7.22,3.74,3.18,7.25,6.62l-.65.6Z" style="fill:#fff"></path><polygon points="141.05 240.8 140.5 232.58 141.93 240.69 141.05 240.8 141.05 240.8" style="fill:#fff"></polygon><path d="M172.84,222.45a50.45,50.45,0,0,1-2.2-8.85,48.75,48.75,0,0,0,3,8.52l-.83.33Z" style="fill:#fff"></path><path d="M172.82,222.19c.86-3.14,1.62-6.32,2.26-9.53-.35,3.25-.81,6.5-1.39,9.72l-.87-.19Z" style="fill:#fff"></path><polygon points="172.96 221.95 179.44 216.87 173.54 222.62 172.96 221.95 172.96 221.95" style="fill:#fff"></polygon><path d="M216.7,383.63a49.77,49.77,0,0,1-5.58-7.21,49,49,0,0,0,6.21,6.58l-.63.63Z" style="fill:#fff"></path><path d="M216.58,383.4c-.48-3.22-1.07-6.44-1.77-9.63q1.49,4.68,2.64,9.46l-.87.17Z" style="fill:#fff"></path><polygon points="216.61 383.13 220.5 375.86 217.42 383.5 216.61 383.13 216.61 383.13" style="fill:#fff"></polygon><path d="M248.33,401.5a50.16,50.16,0,0,1,2.3-8.82,49.28,49.28,0,0,0-1.42,8.93l-.88-.11Z" style="fill:#fff"></path><path d="M248.44,401.26q3.39-3.52,6.54-7.28-2.79,4-5.87,7.87l-.67-.59Z" style="fill:#fff"></path><polygon points="248.68 401.12 256.8 399.76 248.87 401.99 248.68 401.12 248.68 401.12" style="fill:#fff"></polygon><path d="M224.86,434.58a49.61,49.61,0,0,1-2.21-8.85,48.75,48.75,0,0,0,3,8.52l-.82.33Z" style="fill:#fff"></path><path d="M224.84,434.32q1.29-4.72,2.25-9.53-.53,4.88-1.39,9.72l-.86-.19Z" style="fill:#fff"></path><polygon points="224.98 434.08 231.46 428.99 225.56 434.75 224.98 434.08 224.98 434.08" style="fill:#fff"></polygon><path d="M241,363.93a49.62,49.62,0,0,1-3.29-8.5,49.3,49.3,0,0,0,4.07,8.08l-.78.42Z" style="fill:#fff"></path><path d="M241,363.67c.46-3.22.82-6.47,1.05-9.73.06,3.27,0,6.55-.17,9.82l-.88-.09Z" style="fill:#fff"></path><polygon points="241.09 363.42 246.89 357.57 241.75 364.01 241.09 363.42 241.09 363.42" style="fill:#fff"></polygon><path d="M187.82,366.88a49.92,49.92,0,0,1-7.93-4.51,48.74,48.74,0,0,0,8.26,3.68l-.33.83Z" style="fill:#fff"></path><path d="M187.61,366.71q-2.52-4.18-5.34-8.2,3.18,3.74,6.08,7.71l-.74.49Z" style="fill:#fff"></path><polygon points="187.54 366.45 188.33 358.25 188.43 366.48 187.54 366.45 187.54 366.45" style="fill:#fff"></polygon><path d="M339,164.19a49.57,49.57,0,0,1,7.55-5.11,49.48,49.48,0,0,0-7,5.77l-.59-.66Z" style="fill:#fff"></path><path d="M339.21,164.08q4.88-.41,9.72-1.16-4.76,1.19-9.6,2l-.12-.88Z" style="fill:#fff"></path><polygon points="339.48 164.13 346.49 168.47 339.06 164.91 339.48 164.13 339.48 164.13" style="fill:#fff"></polygon><path d="M249.49,142a49.67,49.67,0,0,1-9.11.49,49.63,49.63,0,0,0,8.94-1.36l.17.87Z" style="fill:#fff"></path><path d="M249.23,142q-4.38-2.16-8.93-4,4.69,1.44,9.28,3.21l-.35.81Z" style="fill:#fff"></path><polygon points="249.02 141.78 245.26 134.45 249.79 141.33 249.02 141.78 249.02 141.78" style="fill:#fff"></polygon><path d="M274.86,124.85a49.62,49.62,0,0,1-5.48-7.29,48.87,48.87,0,0,0,6.11,6.66l-.63.63Z" style="fill:#fff"></path><path d="M274.74,124.61c-.43-3.23-1-6.44-1.64-9.65q1.42,4.7,2.51,9.5l-.87.15Z" style="fill:#fff"></path><polygon points="274.78 124.34 278.76 117.13 275.58 124.73 274.78 124.34 274.78 124.34" style="fill:#fff"></polygon><path d="M269.06,153.89a50.33,50.33,0,0,1-5.48-7.29,49.62,49.62,0,0,0,6.12,6.67l-.64.62Z" style="fill:#fff"></path><path d="M268.94,153.66q-.65-4.84-1.64-9.65c.95,3.12,1.79,6.29,2.52,9.49l-.88.16Z" style="fill:#fff"></path><polygon points="268.98 153.38 272.96 146.18 269.78 153.77 268.98 153.38 268.98 153.38" style="fill:#fff"></polygon><path d="M233,200.12a48.92,48.92,0,0,1-5.48-7.29,48.87,48.87,0,0,0,6.11,6.66l-.63.63Z" style="fill:#fff"></path><path d="M232.83,199.88q-.65-4.84-1.64-9.65,1.42,4.7,2.51,9.5l-.87.15Z" style="fill:#fff"></path><polygon points="232.87 199.61 236.85 192.4 233.66 200 232.87 199.61 232.87 199.61" style="fill:#fff"></polygon><path d="M229.34,219.15a49.1,49.1,0,0,1-9,1.57,49.42,49.42,0,0,0,8.72-2.42l.26.85Z" style="fill:#fff"></path><path d="M229.08,219.15q-4.61-1.62-9.34-2.92c3.22.57,6.42,1.27,9.6,2.07l-.26.85Z" style="fill:#fff"></path><polygon points="228.85 218.99 224.24 212.17 229.56 218.46 228.85 218.99 228.85 218.99" style="fill:#fff"></polygon><path d="M212.52,191.18a50.14,50.14,0,0,1-9,1.58,48.28,48.28,0,0,0,8.71-2.43l.27.85Z" style="fill:#fff"></path><path d="M212.25,191.18q-4.6-1.62-9.34-2.92,4.83.87,9.6,2.07l-.26.85Z" style="fill:#fff"></path><polygon points="212.03 191.03 207.41 184.2 212.74 190.49 212.03 191.03 212.03 191.03" style="fill:#fff"></polygon><path d="M290.24,136.64a49.21,49.21,0,0,1,3.13-8.56,49.35,49.35,0,0,0-2.26,8.75l-.87-.19Z" style="fill:#fff"></path><path d="M290.37,136.41c2.47-2.12,4.88-4.33,7.2-6.62q-3.17,3.74-6.59,7.27l-.61-.65Z" style="fill:#fff"></path><polygon points="290.62 136.3 298.83 135.72 290.73 137.18 290.62 136.3 290.62 136.3" style="fill:#fff"></polygon><path d="M282.23,98.1a50,50,0,0,1,3.13-8.56,49.35,49.35,0,0,0-2.26,8.75l-.87-.19Z" style="fill:#fff"></path><path d="M282.36,97.87q3.72-3.18,7.21-6.63Q286.4,95,283,98.52l-.61-.65Z" style="fill:#fff"></path><polygon points="282.61 97.75 290.83 97.17 282.72 98.64 282.61 97.75 282.61 97.75" style="fill:#fff"></polygon><path d="M262.66,85.6a49.81,49.81,0,0,1-5.18-7.5,48.78,48.78,0,0,0,5.84,6.9l-.66.6Z" style="fill:#fff"></path><path d="M262.55,85.36q-.45-4.86-1.25-9.71c.82,3.17,1.53,6.36,2.13,9.59l-.88.12Z" style="fill:#fff"></path><polygon points="262.6 85.09 266.87 78.05 263.38 85.51 262.6 85.09 262.6 85.09" style="fill:#fff"></polygon><path d="M226.2,106.6a48.7,48.7,0,0,1-9.08.77,49.52,49.52,0,0,0,8.89-1.63l.19.86Z" style="fill:#fff"></path><path d="M225.94,106.58q-4.45-2-9.05-3.74,4.74,1.29,9.38,2.92l-.33.82Z" style="fill:#fff"></path><polygon points="225.73 106.41 221.74 99.2 226.48 105.93 225.73 106.41 225.73 106.41" style="fill:#fff"></polygon><path d="M237,84.56a49.87,49.87,0,0,1-9.06-1,48.77,48.77,0,0,0,9,.12l0,.89Z" style="fill:#fff"></path><path d="M236.69,84.49c-2.64-1.9-5.36-3.72-8.14-5.43q4.39,2.19,8.63,4.69l-.49.74Z" style="fill:#fff"></path><polygon points="236.52 84.28 234.02 76.43 237.35 83.96 236.52 84.28 236.52 84.28" style="fill:#fff"></polygon><path d="M252.72,112.65a48.88,48.88,0,0,1-8.48-3.35,49.05,49.05,0,0,0,8.7,2.49l-.22.86Z" style="fill:#fff"></path><path d="M252.5,112.52q-3.09-3.8-6.44-7.38,3.66,3.27,7.1,6.79l-.66.59Z" style="fill:#fff"></path><polygon points="252.39 112.27 252.02 104.04 253.27 112.18 252.39 112.27 252.39 112.27" style="fill:#fff"></polygon><path d="M134.88,184.86a49.18,49.18,0,0,1-8.55-3.15,49.33,49.33,0,0,0,8.74,2.29l-.19.86Z" style="fill:#fff"></path><path d="M134.65,184.73q-3.17-3.72-6.6-7.22,3.73,3.18,7.25,6.62l-.65.6Z" style="fill:#fff"></path><polygon points="134.54 184.49 133.98 176.27 135.42 184.38 134.54 184.49 134.54 184.49" style="fill:#fff"></polygon><path d="M152,172.88a50.4,50.4,0,0,1,1.44-9,49.69,49.69,0,0,0-.55,9l-.89,0Z" style="fill:#fff"></path><path d="M152.05,172.64q3-3.84,5.8-7.88-2.39,4.28-5.08,8.39l-.72-.51Z" style="fill:#fff"></path><polygon points="152.27 172.47 160.22 170.34 152.55 173.32 152.27 172.47 152.27 172.47" style="fill:#fff"></polygon><path d="M151.86,198.34a50.42,50.42,0,0,1,2.27-8.83,48.33,48.33,0,0,0-1.38,8.94l-.89-.11Z" style="fill:#fff"></path><path d="M152,198.1q3.38-3.53,6.51-7.31-2.78,4.05-5.84,7.89l-.67-.58Z" style="fill:#fff"></path><polygon points="152.21 197.96 160.32 196.57 152.4 198.82 152.21 197.96 152.21 197.96" style="fill:#fff"></polygon><path d="M104.68,224.59a49.56,49.56,0,0,1-6.13-6.75,49.37,49.37,0,0,0,6.7,6.07l-.57.68Z" style="fill:#fff"></path><path d="M104.54,224.37q-1.1-4.77-2.52-9.46,1.85,4.54,3.37,9.22l-.85.24Z" style="fill:#fff"></path><polygon points="104.55 224.09 107.85 216.55 105.38 224.4 104.55 224.09 104.55 224.09" style="fill:#fff"></polygon><path d="M156.82,147.28a1.63,1.63,0,0,0-1.55.51,4.39,4.39,0,0,0-1,2.38,3.5,3.5,0,0,0-6.84-.92,4,4,0,0,0-7.52,2.41,4.4,4.4,0,0,0-6.25,5.43c-1.59.55-3.4-.71-5,.17a1.64,1.64,0,0,0-.63.65c-.44.88.12,1.6.69,2.17a13.54,13.54,0,0,0,4.21,2.84l-3.2,1a.76.76,0,0,0,0,1.45c4.8,1.78,12.09.21,17.31-2l.9-.58a16.75,16.75,0,0,0,10-12.4C158.16,149.16,158,147.58,156.82,147.28Z" style="fill:#407BFF"></path><g style="opacity:0.30000000000000004"><path d="M156.82,147.28a1.63,1.63,0,0,0-1.55.51,4.39,4.39,0,0,0-1,2.38,3.5,3.5,0,0,0-6.84-.92,4,4,0,0,0-7.52,2.41,4.4,4.4,0,0,0-6.25,5.43c-1.59.55-3.4-.71-5,.17a1.64,1.64,0,0,0-.63.65c-.44.88.12,1.6.69,2.17a13.54,13.54,0,0,0,4.21,2.84l-3.2,1a.76.76,0,0,0,0,1.45c4.8,1.78,12.09.21,17.31-2l.9-.58a16.75,16.75,0,0,0,10-12.4C158.16,149.16,158,147.58,156.82,147.28Z" style="fill:#fff"></path></g><g style="opacity:0.6000000000000001"><path d="M151.72,149.52a1.44,1.44,0,0,0-.85-.93,2.85,2.85,0,0,0-1.38.34,6.57,6.57,0,0,0-2.71,2.62c-.59-1.27-3-2.62-4.16-1.77s-.56,2.76-.18,4.35c0,0-1.6-.25-2.51-.51a5.22,5.22,0,0,0-2.81-.26A2.13,2.13,0,0,0,136,155.9c.21.66.46,1.71.46,1.71s-.78.16-1.14.21c-.53.07-1,.08-1.52.14a1.84,1.84,0,0,0-1.38,1c-.17.52-.24,3.18,3.06,2.42a1.18,1.18,0,0,1-.88-.86,1.2,1.2,0,0,1,.39-1.17,2.15,2.15,0,0,1,1.39-.35,15.31,15.31,0,0,1,4.88.76,1.6,1.6,0,0,1,.41-2.28,3.5,3.5,0,0,1,2.53-.41,12.82,12.82,0,0,0,2.61.3,3.59,3.59,0,0,1,.06-2.64,2.52,2.52,0,0,1,2.07-1.5,2,2,0,0,1,2,1.45A5.29,5.29,0,0,0,151.72,149.52Z" style="fill:#407BFF"></path></g><path d="M223.4,163.29a1,1,0,0,0-1.2.35,5.3,5.3,0,0,0-1,2.27c.18-1.63-.62-3.24-1.78-3.62s-2.56.54-3.12,2c-.35-1.82-1.84-3-3.26-2.6s-2.6,2.34-2.57,4.26a2.67,2.67,0,0,0-3.76,0,5.65,5.65,0,0,0-1.54,4.74c-1.24.4-2.4-1-3.67-.31a1.4,1.4,0,0,0-.55.58,2.23,2.23,0,0,0,.22,2.22,10.38,10.38,0,0,0,2.71,3.22l-2.47.67a.88.88,0,0,0-.22,1.44c3.29,2.23,8.85,1.39,13-.34l.74-.49c4-1.58,7.54-6,9-11.32C224.14,165.28,224.23,163.7,223.4,163.29Z" style="fill:#407BFF"></path><g style="opacity:0.30000000000000004"><path d="M223.4,163.29a1,1,0,0,0-1.2.35,5.3,5.3,0,0,0-1,2.27c.18-1.63-.62-3.24-1.78-3.62s-2.56.54-3.12,2c-.35-1.82-1.84-3-3.26-2.6s-2.6,2.34-2.57,4.26a2.67,2.67,0,0,0-3.76,0,5.65,5.65,0,0,0-1.54,4.74c-1.24.4-2.4-1-3.67-.31a1.4,1.4,0,0,0-.55.58,2.23,2.23,0,0,0,.22,2.22,10.38,10.38,0,0,0,2.71,3.22l-2.47.67a.88.88,0,0,0-.22,1.44c3.29,2.23,8.85,1.39,13-.34l.74-.49c4-1.58,7.54-6,9-11.32C224.14,165.28,224.23,163.7,223.4,163.29Z" style="fill:#fff"></path></g><g style="opacity:0.6000000000000001"><path d="M219.37,165a1.35,1.35,0,0,0-.51-1c-.24-.12-.79.07-1.05.2a5.88,5.88,0,0,0-2.33,2.34c-.27-1.32-1.88-2.89-2.82-2.17s-.78,2.69-.71,4.3a14.87,14.87,0,0,1-1.77-.75,3,3,0,0,0-2-.53c-.7.17-1.22,1.49-1.13,2.41.07.68.12,1.74.12,1.74s-.59.09-.87.1-.73,0-1.13,0a1.49,1.49,0,0,0-1.15.9c-.19.49-.6,3.13,1.93,2.69a1.07,1.07,0,0,1-.54-.94,1.43,1.43,0,0,1,.45-1.12,1.3,1.3,0,0,1,1.06-.21,8.82,8.82,0,0,1,3.48,1.23A2,2,0,0,1,211,172a2.06,2.06,0,0,1,1.91-.16,6.77,6.77,0,0,0,1.87.55,4.93,4.93,0,0,1,.39-2.61,2,2,0,0,1,1.73-1.29,1.57,1.57,0,0,1,1.27,1.64A6.86,6.86,0,0,0,219.37,165Z" style="fill:#407BFF"></path></g><path d="M367.84,140.31a1,1,0,0,0-1.11-.58,5.3,5.3,0,0,0-2.31.92c1.26-1.05,1.81-2.76,1.23-3.84s-2.21-1.39-3.66-.7c1-1.55.77-3.44-.54-4.13s-3.5-.12-4.81,1.28a2.68,2.68,0,0,0-2.72-2.59,5.63,5.63,0,0,0-4.4,2.35c-1.17-.58-1-2.41-2.44-2.78a1.43,1.43,0,0,0-.79,0,2.22,2.22,0,0,0-1.38,1.75,10.46,10.46,0,0,0-.29,4.2L342.38,135a.87.87,0,0,0-1.15.88c.81,3.89,5.4,7.14,9.57,8.76l.87.16c4,1.67,9.59.91,14.3-1.93C367,142.25,368.15,141.18,367.84,140.31Z" style="fill:#407BFF"></path><g style="opacity:0.30000000000000004"><path d="M367.84,140.31a1,1,0,0,0-1.11-.58,5.3,5.3,0,0,0-2.31.92c1.26-1.05,1.81-2.76,1.23-3.84s-2.21-1.39-3.66-.7c1-1.55.77-3.44-.54-4.13s-3.5-.12-4.81,1.28a2.68,2.68,0,0,0-2.72-2.59,5.63,5.63,0,0,0-4.4,2.35c-1.17-.58-1-2.41-2.44-2.78a1.43,1.43,0,0,0-.79,0,2.22,2.22,0,0,0-1.38,1.75,10.46,10.46,0,0,0-.29,4.2L342.38,135a.87.87,0,0,0-1.15.88c.81,3.89,5.4,7.14,9.57,8.76l.87.16c4,1.67,9.59.91,14.3-1.93C367,142.25,368.15,141.18,367.84,140.31Z" style="fill:#fff"></path></g><g style="opacity:0.6000000000000001"><path d="M363.74,138.75a1.35,1.35,0,0,0,.33-1.07c-.09-.26-.62-.51-.89-.59a5.94,5.94,0,0,0-3.31.06c.73-1.14.66-3.39-.52-3.52s-2.42,1.4-3.49,2.61a14.4,14.4,0,0,1-.76-1.77,3,3,0,0,0-1.09-1.79c-.63-.37-1.92.22-2.49.95-.42.54-1.13,1.34-1.13,1.34s-.48-.36-.68-.54-.52-.52-.82-.79a1.49,1.49,0,0,0-1.45-.15c-.47.22-2.6,1.84-.48,3.28a1.09,1.09,0,0,1,.27-1.05,1.47,1.47,0,0,1,1.1-.5,1.33,1.33,0,0,1,.91.59,8.73,8.73,0,0,1,1.65,3.29,2,2,0,0,1,2-1.17,2,2,0,0,1,1.48,1.21,7,7,0,0,0,1,1.69,4.81,4.81,0,0,1,2.09-1.6,2,2,0,0,1,2.14.26,1.58,1.58,0,0,1-.22,2.07A6.86,6.86,0,0,0,363.74,138.75Z" style="fill:#407BFF"></path></g><path d="M286.8,63.67a1.43,1.43,0,0,0-1.54-.8,7.27,7.27,0,0,0-3.18,1.28c1.74-1.45,2.49-3.82,1.7-5.31s-3.06-1.92-5.06-1c1.4-2.14,1.06-4.75-.75-5.71s-4.82-.16-6.63,1.76a3.69,3.69,0,0,0-3.77-3.56,7.79,7.79,0,0,0-6.07,3.24c-1.62-.8-1.4-3.33-3.36-3.83a1.9,1.9,0,0,0-1.1,0,3,3,0,0,0-1.9,2.41,14.33,14.33,0,0,0-.4,5.81l-3.1-1.71a1.21,1.21,0,0,0-1.59,1.22c1.13,5.38,7.46,9.85,13.22,12.1l1.2.22c5.52,2.3,13.24,1.25,19.75-2.67C285.62,66.36,287.22,64.87,286.8,63.67Z" style="fill:#407BFF"></path><g style="opacity:0.30000000000000004"><path d="M286.8,63.67a1.43,1.43,0,0,0-1.54-.8,7.27,7.27,0,0,0-3.18,1.28c1.74-1.45,2.49-3.82,1.7-5.31s-3.06-1.92-5.06-1c1.4-2.14,1.06-4.75-.75-5.71s-4.82-.16-6.63,1.76a3.69,3.69,0,0,0-3.77-3.56,7.79,7.79,0,0,0-6.07,3.24c-1.62-.8-1.4-3.33-3.36-3.83a1.9,1.9,0,0,0-1.1,0,3,3,0,0,0-1.9,2.41,14.33,14.33,0,0,0-.4,5.81l-3.1-1.71a1.21,1.21,0,0,0-1.59,1.22c1.13,5.38,7.46,9.85,13.22,12.1l1.2.22c5.52,2.3,13.24,1.25,19.75-2.67C285.62,66.36,287.22,64.87,286.8,63.67Z" style="fill:#fff"></path></g><g style="opacity:0.6000000000000001"><path d="M281.14,61.52A1.87,1.87,0,0,0,281.6,60c-.13-.36-.86-.7-1.24-.82a8.17,8.17,0,0,0-4.56.09c1-1.57.9-4.67-.73-4.85s-3.34,1.92-4.82,3.59a22,22,0,0,1-1-2.45,4.06,4.06,0,0,0-1.51-2.46c-.86-.51-2.64.3-3.44,1.32-.57.73-1.55,1.83-1.55,1.83s-.66-.48-.94-.73-.72-.72-1.13-1.09a2,2,0,0,0-2-.21c-.66.31-3.59,2.54-.67,4.52a1.47,1.47,0,0,1,.37-1.44,2,2,0,0,1,1.52-.69,1.82,1.82,0,0,1,1.26.81A12.12,12.12,0,0,1,263.4,62a2.73,2.73,0,0,1,2.73-1.63,2.82,2.82,0,0,1,2,1.68,9.89,9.89,0,0,0,1.34,2.33,6.66,6.66,0,0,1,2.89-2.21,2.78,2.78,0,0,1,3,.37,2.17,2.17,0,0,1-.3,2.85A9.45,9.45,0,0,0,281.14,61.52Z" style="fill:#407BFF"></path></g><g style="opacity:0.30000000000000004"><path d="M297.92,361.57a111.36,111.36,0,0,0-7.77-27.87c.44,9.73,3.85,19.3,5.39,29a73.42,73.42,0,0,1-10,50.27c-9.3,14.77-24.54,25.82-41.61,29.47s-36.63-22.91-49.48-11.1c-.25.23-.15,1.36.17,3.05a134.09,134.09,0,0,0,14.08,15.29h72.55C296.5,425.8,302.24,389.57,297.92,361.57Z"></path></g></g><g id="freepik--Plants--inject-61"><path d="M194.26,437.5c7.69-5.11,15.5-10.3,21.5-17.32s10.1-16.2,9-25.36a71.32,71.32,0,0,0-38.89,39.11A184.23,184.23,0,0,0,174.22,370c-6.38,9.6-8.93,21.49-8.05,33s5.06,22.59,11.13,32.39a142.74,142.74,0,0,0-39.17-27.42c9.75,19.94,24.79,34.7,45.42,42.9h4c17.47.4,31.66-7.2,42-14.36,4.33-3,9.73-7.71,8.95-9.27A218.23,218.23,0,0,0,194.26,437.5Z" style="fill:#263238"></path><path d="M330.19,442.33c2.59-4.27,5.21-8.6,6.54-13.41s1.22-10.24-1.44-14.46a38.55,38.55,0,0,0-10,28.05,99.37,99.37,0,0,0-20.36-28.59,28.37,28.37,0,0,0,3.63,18,39.23,39.23,0,0,0,12.88,13.28A76.87,76.87,0,0,0,296,440.76c9.34,7.51,20.08,11.27,32,10.54l2-.91c8.63-3.82,13.83-10.79,17.21-16.66,1.43-2.47,3-6,2.25-6.59A119,119,0,0,0,330.19,442.33Z" style="fill:#263238"></path></g></svg>
